<svg width="50" height="50" viewBox="0 0 50 50" fill="none" xmlns="http://www.w3.org/2000/svg">
<path d="M35.4443 6.23663C38.942 6.23663 41.7772 9.07199 41.7773 12.5696V32.5735C41.7773 34.5108 40.8919 36.3431 39.3721 37.5443L32.626 42.8714C31.5082 43.7546 30.1257 44.2364 28.7012 44.2366H14.333C10.8355 44.2365 8.00018 41.4012 8 37.9036V12.5696C8.00018 9.0721 10.8355 6.23681 14.333 6.23663H35.4443ZM14.333 10.4593C13.1673 10.4595 12.2228 11.404 12.2227 12.5696V37.9036C12.2228 39.0693 13.1673 40.0138 14.333 40.014H28.0557V35.7923C28.0557 32.8776 30.4183 30.5142 33.333 30.514H37.5557V12.5696C37.5555 11.4039 36.6102 10.4593 35.4443 10.4593H14.333ZM33.333 32.6253C31.5843 32.6255 30.167 34.0435 30.167 35.7923V39.4329L36.7539 34.2318C37.2471 33.842 37.5375 33.252 37.5527 32.6253H33.333ZM24.8887 24.181C25.4716 24.181 25.9443 24.6537 25.9443 25.2366C25.9443 25.8196 25.4716 26.2923 24.8887 26.2923H16.4443C15.8614 26.2922 15.3887 25.8196 15.3887 25.2366C15.3887 24.6537 15.8614 24.181 16.4443 24.181H24.8887ZM33.333 15.7366C33.916 15.7366 34.3887 16.2093 34.3887 16.7923C34.3886 17.3752 33.9159 17.848 33.333 17.848H16.4443C15.8615 17.8479 15.3887 17.3752 15.3887 16.7923C15.3887 16.2094 15.8614 15.7367 16.4443 15.7366H33.333Z" fill="#B2B2B2"/>
</svg>
