<svg width="50" height="50" viewBox="0 0 50 50" fill="none" xmlns="http://www.w3.org/2000/svg">
<path d="M38.6667 12.4866H26C26 11.3595 25.5552 10.2785 24.7633 9.48143C23.9715 8.6844 22.8976 8.23663 21.7778 8.23663H13.3333C9.84156 8.23663 7 11.0969 7 14.6116V35.8616C7 39.3764 9.84156 42.2366 13.3333 42.2366H38.6667C42.1584 42.2366 45 39.3764 45 35.8616V18.8616C45 15.3469 42.1584 12.4866 38.6667 12.4866ZM13.3333 12.4866H21.7778C21.7778 13.6138 22.2226 14.6948 23.0144 15.4918C23.8063 16.2889 24.8802 16.7366 26 16.7366H38.6667C39.2266 16.7366 39.7635 16.9605 40.1595 17.359C40.5554 17.7575 40.7778 18.298 40.7778 18.8616H11.2222V14.6116C11.2222 14.048 11.4446 13.5075 11.8406 13.109C12.2365 12.7105 12.7734 12.4866 13.3333 12.4866ZM38.6667 37.9866H13.3333C12.7734 37.9866 12.2365 37.7628 11.8406 37.3642C11.4446 36.9657 11.2222 36.4252 11.2222 35.8616V20.9866H40.7778V35.8616C40.7778 36.4252 40.5554 36.9657 40.1595 37.3642C39.7635 37.7628 39.2266 37.9866 38.6667 37.9866Z" fill="#B2B2B2"/>
</svg>
