<svg width="150" height="150" viewBox="0 0 150 150" fill="none" xmlns="http://www.w3.org/2000/svg">
<path d="M75.501 69.6651C61.3645 69.6651 49.8635 58.1641 49.8635 44.0276C49.8635 29.8911 61.3645 18.3893 75.501 18.3893C89.6375 18.3893 101.138 29.8902 101.138 44.0267C101.138 58.1632 89.6375 69.6651 75.501 69.6651ZM75.501 21.1337C62.8776 21.1337 52.6079 31.4042 52.6079 44.0267C52.6079 56.6492 62.8776 66.9206 75.501 66.9206C88.1244 66.9206 98.394 56.6501 98.394 44.0276C98.394 31.4051 88.1244 21.1337 75.501 21.1337Z" fill="#0D2F6E"/>
<path d="M124.286 133.316C123.527 133.316 122.914 132.702 122.914 131.944V111.124C122.914 94.4728 109.366 80.9254 92.7149 80.9254H58.288C41.6358 80.9254 28.0894 94.4728 28.0894 111.124V131.944C28.0894 132.702 27.4756 133.316 26.7172 133.316C25.9588 133.316 25.345 132.702 25.345 131.944V111.124C25.345 92.9597 40.1237 78.181 58.288 78.181H92.7149C110.879 78.181 125.658 92.9588 125.658 111.124V131.944C125.658 132.702 125.043 133.316 124.286 133.316Z" fill="#0D2F6E"/>
<path d="M54.1505 133.316C53.3922 133.316 52.7783 132.702 52.7783 131.944V109.371C52.7783 108.614 53.3922 107.999 54.1505 107.999C54.9089 107.999 55.5227 108.614 55.5227 109.371V131.944C55.5227 132.702 54.9089 133.316 54.1505 133.316Z" fill="#0D2F6E"/>
<path d="M98.9594 133.316C98.201 133.316 97.5872 132.702 97.5872 131.944V109.371C97.5872 108.614 98.201 107.999 98.9594 107.999C99.7177 107.999 100.332 108.614 100.332 109.371V131.944C100.332 132.702 99.7177 133.316 98.9594 133.316Z" fill="#0D2F6E"/>
<path d="M144.111 133.461H6.89052C6.13215 133.461 5.51831 132.846 5.51831 132.089C5.51831 131.331 6.13215 130.717 6.89052 130.717H144.111C144.87 130.717 145.484 131.331 145.484 132.089C145.484 132.846 144.87 133.461 144.111 133.461Z" fill="#0D2F6E"/>
<path d="M113.827 45.4924C115.038 45.6163 116.331 45.7635 117.505 46.0266C118.903 46.3399 119.81 46.753 120.233 47.2004V47.2014C120.89 47.895 121.204 48.7929 121.187 49.7023C121.158 50.6114 120.798 51.4828 120.108 52.1349C119.417 52.7888 118.523 53.1029 117.618 53.0881C117.161 53.0757 116.71 52.9738 116.293 52.7873C115.875 52.6007 115.499 52.3334 115.185 52.0012L115.184 52.0002C114.765 51.5586 114.402 50.631 114.164 49.2141C113.964 48.0212 113.885 46.712 113.827 45.4924ZM113.292 27.8078C115.21 27.2462 116.728 27.0915 117.715 27.4045C119.124 27.8516 120.218 28.8309 120.871 30.0617V30.0627C121.517 31.3094 121.689 32.7685 121.241 34.1799C120.793 35.5925 119.808 36.6889 118.572 37.341C117.305 37.9939 115.83 38.119 114.471 37.6877C113.494 37.3777 112.343 36.3768 111.097 34.8098C109.891 33.2946 108.782 31.4956 107.807 29.9074C109.516 29.1742 111.445 28.3488 113.292 27.8078Z" stroke="#E5622A" stroke-width="3"/>
<path d="M37.8248 42.9475L37.8245 42.9484C35.6181 43.5076 33.0994 44.1446 30.8726 45.0045C28.5872 45.887 26.9176 46.8931 26.1333 48.0152C25.0447 49.5728 24.6956 51.4255 24.9905 53.1839C25.2847 54.8425 26.1491 56.3707 27.5403 57.4537L27.8257 57.6646C29.2881 58.6867 31.0115 59.0565 32.673 58.8529L33.0046 58.8044C34.693 58.5011 36.2043 57.5825 37.2512 56.2334L37.455 55.958C38.2323 54.8457 38.6044 52.9333 38.6499 50.4797C38.6941 48.0905 38.43 45.5004 38.1973 43.2385L38.1964 43.228L38.1957 43.2166C38.1855 43.0999 38.174 42.982 38.163 42.8632C38.0505 42.8912 37.9378 42.9196 37.8248 42.9475Z" stroke="#E5622A" stroke-width="3"/>
</svg>
