<svg width="150" height="150" viewBox="0 0 150 150" fill="none" xmlns="http://www.w3.org/2000/svg">
<path d="M75.5941 98.1456C74.8367 98.1456 74.2219 97.5317 74.2219 96.7734V76.1509C74.2219 75.3925 74.8367 74.7787 75.5941 74.7787H96.2084C96.9658 74.7787 97.5806 75.3925 97.5806 76.1509C97.5806 76.9093 96.9658 77.5231 96.2084 77.5231H76.9663V96.7734C76.9663 97.5317 76.3525 98.1456 75.5941 98.1456Z" fill="#0D2F6E"/>
<path d="M92.8403 87.5731C92.8916 88.2307 92.9961 88.8738 93.146 89.4989V89.4999L92.6597 89.6171C92.8192 90.2819 93.0297 90.927 93.2876 91.5477L93.7495 91.3563L93.7515 91.3553C94.0026 91.9597 94.2989 92.5406 94.6382 93.0927V93.0936L94.2114 93.3553C94.567 93.9339 94.9676 94.4822 95.4067 94.996L95.7866 94.6718L95.7886 94.6688C96.2118 95.1639 96.6727 95.6252 97.1675 96.0487L97.1665 96.0516L96.8413 96.4315C97.3547 96.8709 97.9028 97.271 98.481 97.6268L98.7437 97.201V97.1991C99.296 97.539 99.8763 97.8372 100.481 98.0887V98.0907L100.289 98.5516C100.909 98.8098 101.554 99.0218 102.219 99.1815L102.336 98.6952V98.6942C102.962 98.8444 103.605 98.9475 104.263 98.9989L104.225 99.4979C104.56 99.5241 104.899 99.537 105.241 99.537C105.582 99.537 105.921 99.5241 106.256 99.4979L106.216 98.9989C106.875 98.9476 107.518 98.8444 108.144 98.6942L108.261 99.1815C108.926 99.0219 109.572 98.8107 110.193 98.5526L110 98.0907L110 98.0887C110.604 97.8374 111.185 97.5397 111.737 97.2001L111.739 97.202L112 97.6278C112.579 97.272 113.127 96.8719 113.641 96.4325L113.316 96.0526L113.313 96.0497C113.808 95.6262 114.269 95.165 114.693 94.6698L114.696 94.6718L115.076 94.9969C115.515 94.4833 115.915 93.9348 116.271 93.3563L115.845 93.0946L115.844 93.0936C116.184 92.5412 116.481 91.9601 116.732 91.3553L116.734 91.3563L117.196 91.5487C117.454 90.9279 117.665 90.282 117.825 89.6171L117.338 89.5009L117.337 89.4999C117.488 88.8741 117.591 88.2303 117.642 87.5721L118.141 87.6122C118.154 87.4445 118.164 87.2756 118.17 87.1063L118.181 86.5966C118.181 86.2871 118.17 85.9781 118.148 85.6718L117.649 85.7079H117.648C117.606 85.113 117.521 84.5254 117.396 83.9491L117.885 83.8436C117.754 83.2393 117.58 82.6463 117.365 82.0702L116.896 82.245H116.894C116.687 81.6895 116.44 81.1496 116.156 80.6298H116.157L116.595 80.3895C116.3 79.8497 115.966 79.3301 115.594 78.8358L115.194 79.1356C114.839 78.6642 114.449 78.217 114.027 77.7968H114.028L114.38 77.4423C114.163 77.2256 113.936 77.0163 113.702 76.8143L113.638 76.7528C113.578 76.6897 113.529 76.6198 113.492 76.5458L113.045 76.7704C112.884 76.449 112.854 76.0746 112.964 75.7323L112.967 75.7235L113.443 75.8798C113.477 75.7748 113.531 75.6732 113.609 75.5829L113.61 75.5839C113.688 75.4936 113.779 75.4236 113.877 75.3739L113.653 74.9276C113.977 74.7646 114.354 74.7367 114.699 74.8495L114.544 75.3241C114.649 75.3586 114.75 75.4145 114.84 75.4921C115.106 75.7212 115.363 75.9593 115.61 76.205L115.96 75.8505C116.477 76.3638 116.954 76.9093 117.387 77.4852L116.988 77.787C117.409 78.3479 117.789 78.9371 118.125 79.5497L118.562 79.3094C118.91 79.9445 119.212 80.6036 119.465 81.2821L118.998 81.4569C119.242 82.1109 119.44 82.7836 119.589 83.4696L120.078 83.3632C120.231 84.0671 120.332 84.785 120.384 85.5116L119.888 85.5468C119.901 85.7207 119.909 85.8952 119.916 86.0702L119.925 86.5966C119.925 86.9194 119.915 87.2399 119.894 87.5575L120.391 87.5887C120.348 88.2577 120.261 88.9147 120.133 89.5575L119.644 89.4618C119.518 90.0954 119.352 90.7147 119.147 91.3163L119.62 91.4764C119.405 92.1071 119.149 92.7189 118.857 93.3094L118.41 93.0887C118.124 93.6649 117.802 94.2202 117.447 94.7509L117.862 95.0282C117.492 95.5796 117.087 96.1051 116.651 96.6024L116.276 96.2733C115.853 96.755 115.399 97.2097 114.917 97.6327L115.247 98.0067C114.749 98.4434 114.224 98.848 113.672 99.2177L113.395 98.8036C112.864 99.1593 112.309 99.4812 111.733 99.7665L111.954 100.214C111.363 100.506 110.751 100.762 110.121 100.976L109.96 100.504C109.359 100.709 108.74 100.875 108.106 101.001L108.202 101.49C107.559 101.618 106.902 101.705 106.233 101.748L106.202 101.251C105.884 101.271 105.564 101.282 105.241 101.282C104.918 101.282 104.597 101.271 104.279 101.251L104.247 101.748C103.578 101.704 102.921 101.618 102.278 101.49L102.375 101.001C101.742 100.875 101.123 100.709 100.521 100.504L100.36 100.976C99.7291 100.762 99.1175 100.505 98.5269 100.213L98.7485 99.7665C98.1727 99.4812 97.6178 99.1593 97.0874 98.8036L96.8081 99.2177C96.2571 98.8481 95.7318 98.4433 95.2349 98.0067L95.5649 97.6317C95.0834 97.2087 94.6293 96.755 94.2065 96.2733L93.8315 96.6024C93.3949 96.1049 92.9902 95.5789 92.6206 95.0272L93.0356 94.7499C92.6803 94.2194 92.3587 93.6646 92.0737 93.0887L91.6255 93.3094C91.3333 92.7189 91.0773 92.1071 90.8628 91.4764L91.3364 91.3153C91.1318 90.7137 90.9651 90.0944 90.8394 89.4608L90.3491 89.5575C90.2216 88.9148 90.1347 88.2576 90.0913 87.5887L90.5903 87.5575C90.58 87.3987 90.5721 87.2391 90.5669 87.079L90.5591 86.5966C90.5591 86.2454 90.5714 85.8953 90.5962 85.5477L90.0981 85.5116C90.1407 84.916 90.2176 84.3262 90.3286 83.745L90.4067 83.3651L90.895 83.4716C91.0443 82.786 91.2425 82.1138 91.4868 81.4598L91.019 81.285C91.2723 80.6072 91.5731 79.9482 91.9204 79.3134L92.3589 79.5526C92.694 78.9403 93.0735 78.3511 93.4946 77.7899L93.0942 77.4891C93.5264 76.9133 94.0028 76.3673 94.5181 75.8534L94.8696 76.2069C94.9931 76.0838 95.1194 75.9627 95.2476 75.8436L95.6392 75.493V75.4921C95.7289 75.4143 95.8293 75.3588 95.9341 75.3241L95.7769 74.8495C96.121 74.7355 96.4992 74.763 96.8237 74.9257L96.6001 75.3729C96.6989 75.4225 96.7907 75.4918 96.8687 75.5819C96.9466 75.6721 97.0019 75.7729 97.0366 75.8778L97.5103 75.7206C97.6246 76.0655 97.598 76.4436 97.4351 76.7684L96.9888 76.5448C96.9392 76.6435 96.869 76.7344 96.7788 76.8124C96.5448 77.0148 96.3185 77.2254 96.1011 77.4423L96.4546 77.7958C96.0326 78.2167 95.6435 78.6649 95.2896 79.1366L94.8901 78.8368C94.5191 79.3314 94.1844 79.8509 93.8892 80.3905L94.3286 80.6307C94.044 81.1509 93.7968 81.6906 93.5894 82.246L93.1206 82.0702C92.9053 82.6465 92.7307 83.2395 92.5991 83.8436L93.0874 83.9491C92.9619 84.5255 92.8779 85.1132 92.8354 85.7079L92.3364 85.6718C92.3145 85.9781 92.3032 86.2871 92.3032 86.5966C92.3032 86.9379 92.3171 87.2763 92.3433 87.6112L92.8403 87.5731Z" stroke="#E5622A" stroke-dasharray="2 2"/>
<path d="M37.7765 77.3518H17.1622C16.4048 77.3518 15.79 76.7379 15.79 75.9796V31.6151C15.79 22.629 23.0975 15.3179 32.08 15.3179H76.4517C77.2092 15.3179 77.8239 15.9317 77.8239 16.6901V33.1227C77.8239 33.8811 77.2092 34.4949 76.4517 34.4949C75.6943 34.4949 75.0795 33.8811 75.0795 33.1227V18.0623H32.08C24.6106 18.0623 18.5345 24.1421 18.5345 31.6151V74.6064H37.7765C38.5339 74.6064 39.1487 75.2203 39.1487 75.9786C39.1487 76.737 38.5339 77.3518 37.7765 77.3518Z" fill="#0D2F6E"/>
<path d="M76.4508 77.3517H55.8366C55.0791 77.3517 54.4644 76.7379 54.4644 75.9795C54.4644 75.2211 55.0791 74.6073 55.8366 74.6073H75.0786V60.6409C75.0786 59.8826 75.6933 59.2687 76.4508 59.2687C77.2083 59.2687 77.823 59.8826 77.823 60.6409V75.9786C77.823 76.737 77.2092 77.3517 76.4508 77.3517Z" fill="#0D2F6E"/>
<path d="M55.8402 77.3536C55.4551 77.3536 55.0727 77.1926 54.801 76.8788C54.3052 76.3052 54.3683 75.4389 54.9419 74.9431C57.6762 72.5801 59.2442 69.1514 59.2442 65.538C59.2442 58.6778 53.6657 53.0975 46.8083 53.0975C39.9482 53.0975 34.367 58.6787 34.367 65.538C34.367 69.1578 35.9368 72.5847 38.6721 74.9412C39.2466 75.4362 39.3106 76.3025 38.8166 76.877C38.3226 77.4515 37.4572 77.5164 36.8818 77.0215C33.54 74.1426 31.6226 69.9574 31.6226 65.538C31.6226 57.1647 38.4342 50.3531 46.8083 50.3531C55.1779 50.3531 61.9886 57.1647 61.9886 65.538C61.9886 69.9501 60.0739 74.1353 56.7358 77.0197C56.4769 77.2438 56.1577 77.3536 55.8402 77.3536Z" fill="#0D2F6E"/>
<path d="M81.1804 62.799C79.413 62.799 77.6721 62.5099 76.0072 61.94C75.29 61.6948 74.9076 60.9145 75.1528 60.1973C75.3979 59.481 76.181 59.0977 76.8946 59.3438C78.2741 59.8158 79.7158 60.0546 81.1804 60.0546C88.4431 60.0546 94.3518 54.1458 94.3518 46.8823C94.3518 39.6187 88.4431 33.71 81.1804 33.71C79.7167 33.71 78.275 33.9497 76.8946 34.4217C76.1755 34.6651 75.397 34.2845 75.1528 33.5673C74.9067 32.8501 75.2891 32.0697 76.0072 31.8246C77.674 31.2547 79.4148 30.9656 81.1804 30.9656C89.9571 30.9656 97.0962 38.1056 97.0962 46.8823C97.0962 55.6589 89.9571 62.799 81.1804 62.799Z" fill="#0D2F6E"/>
<path d="M96.7234 76.3237H76.1083C75.3508 76.3237 74.7361 75.7099 74.7361 74.9515V59.6129C74.7361 58.8546 75.3508 58.2407 76.1083 58.2407C76.8658 58.2407 77.4805 58.8546 77.4805 59.6129V73.5784H96.7225C97.48 73.5784 98.0947 74.1922 98.0947 74.9506C98.0947 75.7089 97.4809 76.3237 96.7234 76.3237Z" fill="#0D2F6E"/>
<path d="M134.707 74.7217V75.2217H135.739C135.859 75.2217 135.971 75.2428 136.073 75.2793L136.241 74.8086C136.579 74.9292 136.85 75.1674 136.995 75.4678L136.546 75.6846C136.588 75.7715 136.611 75.8661 136.611 75.9648V76.998H137.111V79.0635H136.611V81.1299H137.111V83.1953H136.611V85.2607H137.111V87.3271H136.611V89.3926H137.111V91.459H136.611V93.5244H137.111V95.5908H136.611V97.6562H137.111V99.7227H136.611V101.788H137.111V103.854H136.611V105.92H137.111V107.985H136.611V110.052H137.111V112.117H136.611V114.184H137.111V116.249H136.611V118.315H137.111V120.381H136.611V121.414C136.611 121.735 136.6 122.053 136.579 122.369L137.077 122.4C137.034 123.065 136.948 123.718 136.822 124.356L136.332 124.26C136.207 124.889 136.041 125.505 135.838 126.103L136.311 126.263C136.098 126.89 135.843 127.498 135.553 128.085L135.107 127.864C134.824 128.436 134.505 128.988 134.152 129.515L134.566 129.792C134.199 130.34 133.797 130.862 133.364 131.356L132.989 131.028C132.569 131.507 132.118 131.958 131.64 132.378L131.969 132.753C131.475 133.187 130.952 133.589 130.405 133.956L130.127 133.542C129.6 133.895 129.049 134.216 128.477 134.499L128.698 134.945C128.111 135.236 127.503 135.491 126.876 135.704L126.716 135.231C126.119 135.435 125.504 135.601 124.874 135.726L124.97 136.215C124.331 136.342 123.679 136.429 123.014 136.472L122.983 135.974C122.667 135.994 122.348 136.005 122.028 136.005H120.992V136.505H118.92V136.005H116.849V136.505H114.777V136.005H112.705V136.505H110.633V136.005H108.562V136.505H106.49V136.005H104.418V136.505H102.346V136.005H100.275V136.505H98.2034V136.005H96.1311V136.505H94.0598V136.005H91.9875V136.505H89.9163V136.005H87.844V136.505H85.7727V136.005H83.7004V136.505H81.6292V136.005H79.5569V136.505H77.4856V136.005H76.4495C76.3304 136.005 76.2176 135.981 76.1155 135.938L75.9241 136.399C75.5888 136.26 75.3199 135.993 75.1809 135.657L75.6438 135.466C75.6121 135.389 75.5899 135.307 75.5813 135.221L75.5774 135.133V134.193H75.0774V132.314H75.5774V130.437H75.0774V128.558H75.5774V126.68H75.0774V124.801H75.5774V122.923H75.0774V121.044H75.5774V119.165H75.0774V117.287H75.5774V116.348C75.5774 116.228 75.6015 116.116 75.6438 116.014L75.1819 115.822L75.1809 115.821C75.32 115.486 75.5884 115.218 75.9231 115.079L75.9241 115.08L76.1155 115.542C76.2176 115.5 76.3304 115.476 76.4495 115.476C76.5686 115.476 76.6813 115.5 76.7834 115.542L76.9749 115.079C77.3102 115.218 77.5778 115.487 77.717 115.822L77.2561 116.014C77.2984 116.116 77.3215 116.228 77.3215 116.348V117.437H77.8215V119.612H77.3215V121.789H77.8215V123.966H77.3215V126.143H77.8215V128.318H77.3215V130.495H77.8215V132.672H77.3215V134.26H78.8264V133.76H80.8362V134.26H82.845V133.76H84.8547V134.26H86.8635V133.76H88.8733V134.26H90.8821V133.76H92.8918V134.26H94.9006V133.76H96.9104V134.26H98.9202V133.76H100.929V134.26H102.939V133.76H104.948V134.26H106.957V133.76H108.966V134.26H110.976V133.76H112.985V134.26H114.994V133.76H117.004V134.26H119.013V133.76H121.023V134.26H122.027C122.366 134.26 122.703 134.247 123.035 134.221L122.996 133.723C123.649 133.672 124.287 133.568 124.907 133.419L124.908 133.42L125.026 133.906C125.685 133.748 126.326 133.539 126.942 133.282L126.749 132.82L126.748 132.818C127.349 132.569 127.925 132.273 128.473 131.936L128.474 131.938L128.736 132.363C129.31 132.01 129.854 131.613 130.364 131.177L130.038 130.797L130.035 130.794C130.527 130.373 130.984 129.916 131.405 129.424L131.407 129.427L131.787 129.751C132.223 129.241 132.62 128.696 132.973 128.122L132.546 127.86L132.545 127.859C132.882 127.311 133.177 126.735 133.426 126.135L133.428 126.136L133.89 126.328C134.146 125.712 134.355 125.071 134.513 124.411L134.027 124.295L134.025 124.294C134.151 123.766 134.246 123.225 134.302 122.674L134.328 122.382L134.826 122.421C134.839 122.255 134.849 122.088 134.856 121.92L134.865 121.413V120.408H134.365V118.399H134.865V116.39H134.365V114.381H134.865V112.371H134.365V110.361H134.865V108.353H134.365V106.343H134.865V104.334H134.365V102.324H134.865V100.315H134.365V98.3057H134.865V96.2969H134.365V94.2871H134.865V92.2773H134.365V90.2686H134.865V88.2588H134.365V86.25H134.865V84.2402H134.365V82.2314H134.865V80.2217H134.365V78.2129H134.865V76.708H133.404V77.208H131.48V76.708H129.556V77.208H127.631V76.708H125.707V77.208H123.782V76.708H121.859V77.208H119.935V76.708H118.01V77.208H116.086V76.708H115.124C115.004 76.708 114.891 76.687 114.788 76.6504L114.62 77.1201C114.283 76.9993 114.01 76.7617 113.865 76.4609L114.316 76.2441C114.284 76.1792 114.264 76.1101 114.256 76.0381L114.252 75.9648C114.252 75.8661 114.274 75.7715 114.316 75.6846L113.865 75.4678C114.01 75.1672 114.283 74.9293 114.62 74.8086L114.788 75.2793C114.891 75.2427 115.004 75.2217 115.124 75.2217H116.155V74.7217H118.216V75.2217H120.278V74.7217H122.339V75.2217H124.401V74.7217H126.462V75.2217H128.523V74.7217H130.584V75.2217H132.646V74.7217H134.707Z" stroke="#E5622A" stroke-dasharray="2 2"/>
<path d="M76.4501 136.646H34.7478C24.2925 136.646 15.7866 128.141 15.7866 117.686V75.9813C15.7866 75.223 16.4014 74.6091 17.1588 74.6091H37.7767C38.5342 74.6091 39.1489 75.223 39.1489 75.9813C39.1489 76.7397 38.5342 77.3535 37.7767 77.3535H18.531V117.685C18.531 126.626 25.8056 133.901 34.7478 133.901H75.0789V114.66C75.0789 113.902 75.6936 113.288 76.4511 113.288C77.2085 113.288 77.8233 113.902 77.8233 114.66V135.274C77.8224 136.032 77.2085 136.646 76.4501 136.646Z" fill="#0D2F6E"/>
<path d="M76.4502 97.9724C75.6927 97.9724 75.078 97.3585 75.078 96.6001V77.3535H55.8378C55.0803 77.3535 54.4656 76.7397 54.4656 75.9813C54.4656 75.223 55.0803 74.6091 55.8378 74.6091H76.4502C77.2077 74.6091 77.8224 75.223 77.8224 75.9813V96.5992C77.8224 97.3576 77.2086 97.9724 76.4502 97.9724Z" fill="#0D2F6E"/>
<path d="M66.0095 120.811C57.6363 120.811 50.8237 114.001 50.8237 105.63C50.8237 97.257 57.6354 90.4445 66.0095 90.4445C70.428 90.4445 74.6133 92.3619 77.4931 95.7037C77.9871 96.2782 77.923 97.1445 77.3485 97.6394C76.774 98.1334 75.9077 98.0685 75.4137 97.4949C73.0572 94.7587 69.6294 93.1889 66.0104 93.1889C59.1503 93.1889 53.5691 98.7701 53.5691 105.63C53.5691 112.488 59.1503 118.066 66.0104 118.066C69.6239 118.066 73.0517 116.498 75.4155 113.764C75.9105 113.19 76.7777 113.127 77.3504 113.623C77.9239 114.119 77.9871 114.985 77.4912 115.559C74.6069 118.896 70.4216 120.811 66.0095 120.811Z" fill="#0D2F6E"/>
<path d="M136.232 77.2386H115.609C114.852 77.2386 114.237 76.6247 114.237 75.8663C114.237 75.108 114.852 74.4941 115.609 74.4941H134.859V32.2877C134.859 24.3811 128.427 17.9491 120.521 17.9491H78.3062V33.0095C78.3062 33.7679 77.6914 34.3817 76.934 34.3817C76.1765 34.3817 75.5618 33.7679 75.5618 33.0095V16.5769C75.5618 15.8185 76.1765 15.2047 76.934 15.2047H120.521C129.941 15.2047 137.604 22.868 137.604 32.2877V75.8654C137.604 76.6238 136.989 77.2386 136.232 77.2386Z" fill="#0D2F6E"/>
</svg>
