<svg width="150" height="150" viewBox="0 0 150 150" fill="none" xmlns="http://www.w3.org/2000/svg">
<path d="M91.9524 135.681H25.699C19.8268 135.681 15.0486 130.903 15.0486 125.03V28.4773C15.0486 22.6042 19.8268 17.8268 25.699 17.8268H49.7015C50.396 17.8268 50.9581 18.3889 50.9581 19.0834C50.9581 19.7778 50.396 20.3399 49.7015 20.3399H25.699C21.2123 20.3399 17.5617 23.9898 17.5617 28.4773V125.03C17.5617 129.517 21.2123 133.167 25.699 133.167H91.9524C92.6469 133.167 93.2089 133.73 93.2089 134.424C93.2089 135.118 92.6469 135.681 91.9524 135.681Z" fill="#0D2F6E"/>
<path d="M121.378 90.1661C120.683 90.1661 120.121 89.6031 120.121 88.9095V28.4773C120.121 23.9906 116.468 20.3399 111.978 20.3399H87.9748C87.2804 20.3399 86.7183 19.7778 86.7183 19.0834C86.7183 18.3889 87.2804 17.8268 87.9748 17.8268H111.978C117.855 17.8268 122.634 22.6051 122.634 28.4773V88.9095C122.634 89.6031 122.072 90.1661 121.378 90.1661Z" fill="#0D2F6E"/>
<path d="M84.5213 26.3236H53.1572C50.5603 26.3236 48.4485 24.2117 48.4485 21.6149V16.5502C48.4485 13.9533 50.5603 11.8415 53.1572 11.8415H84.5213C87.1174 11.8415 89.23 13.9533 89.23 16.5502V21.6149C89.23 24.2109 87.1174 26.3236 84.5213 26.3236ZM53.1572 14.3546C51.9467 14.3546 50.9616 15.3397 50.9616 16.5502V21.6149C50.9616 22.8254 51.9467 23.8105 53.1572 23.8105H84.5213C85.7318 23.8105 86.7169 22.8254 86.7169 21.6149V16.5502C86.7169 15.3397 85.7318 14.3546 84.5213 14.3546H53.1572Z" fill="#0D2F6E"/>
<path d="M105.279 44.5493H32.404C31.7096 44.5493 31.1475 43.9864 31.1475 43.2928C31.1475 42.5992 31.7096 42.0363 32.404 42.0363H105.279C105.974 42.0363 106.536 42.5992 106.536 43.2928C106.536 43.9864 105.974 44.5493 105.279 44.5493Z" fill="#0D2F6E"/>
<path d="M105.279 62.7758H32.404C31.7096 62.7758 31.1475 62.2129 31.1475 61.5193C31.1475 60.8257 31.7096 60.2628 32.404 60.2628H105.279C105.974 60.2628 106.536 60.8257 106.536 61.5193C106.536 62.2129 105.974 62.7758 105.279 62.7758Z" fill="#0D2F6E"/>
<path d="M79.9307 81.0025H32.404C31.7096 81.0025 31.1475 80.4395 31.1475 79.7459C31.1475 79.0523 31.7096 78.4894 32.404 78.4894H79.9307C80.6251 78.4894 81.1872 79.0523 81.1872 79.7459C81.1872 80.4395 80.6243 81.0025 79.9307 81.0025Z" fill="#0D2F6E"/>
<path d="M71.5778 99.2274H32.4055C31.711 99.2274 31.1489 98.6645 31.1489 97.9709C31.1489 97.2773 31.711 96.7144 32.4055 96.7144H71.5778C72.2722 96.7144 72.8343 97.2773 72.8343 97.9709C72.8343 98.6645 72.2722 99.2274 71.5778 99.2274Z" fill="#0D2F6E"/>
<path d="M65.6578 117.457H32.4055C31.711 117.457 31.1489 116.894 31.1489 116.201C31.1489 115.507 31.711 114.944 32.4055 114.944H65.657C66.3514 114.944 66.9135 115.507 66.9135 116.201C66.9135 116.894 66.3514 117.457 65.6578 117.457Z" fill="#0D2F6E"/>
<path d="M106.646 140.009C91.0108 140.009 78.2913 127.289 78.2913 111.654C78.2913 96.0197 91.0108 83.3002 106.646 83.3002C122.28 83.3002 135 96.0197 135 111.654C135 127.289 122.279 140.009 106.646 140.009ZM106.646 85.8141C92.3972 85.8141 80.8043 97.4061 80.8043 111.655C80.8043 125.905 92.3964 137.496 106.646 137.496C120.895 137.496 132.487 125.904 132.487 111.654C132.487 97.4053 120.894 85.8141 106.646 85.8141Z" fill="#E5622A"/>
<path d="M111.245 92.9007L110.525 119.381H103.767L103.028 92.9007H111.245ZM107.146 131.199C105.927 131.199 104.881 130.768 104.007 129.906C103.133 129.032 102.702 127.986 102.714 126.767C102.702 125.561 103.133 124.527 104.007 123.665C104.881 122.803 105.927 122.372 107.146 122.372C108.315 122.372 109.343 122.803 110.23 123.665C111.116 124.527 111.565 125.561 111.578 126.767C111.565 127.58 111.35 128.324 110.931 129.002C110.525 129.666 109.99 130.202 109.325 130.608C108.66 131.002 107.934 131.199 107.146 131.199Z" fill="#E5622A"/>
</svg>
