<svg width="150" height="150" viewBox="0 0 150 150" fill="none" xmlns="http://www.w3.org/2000/svg">
<path d="M43.7523 129.702H13.507C10.6923 129.702 8.40259 127.422 8.40259 124.62V17.2826C8.40259 14.4814 10.6923 12.202 13.507 12.202H43.7523C46.5661 12.202 48.8567 14.4814 48.8567 17.2826V124.619C48.8567 127.422 46.5661 129.702 43.7523 129.702ZM13.507 14.8372C12.1526 14.8372 11.0496 15.9343 11.0496 17.2826V124.619C11.0496 125.969 12.1526 127.066 13.507 127.066H43.7523C45.1076 127.066 46.2096 125.969 46.2096 124.619V17.2826C46.2096 15.9343 45.1076 14.8372 43.7523 14.8372H13.507Z" fill="#E5622A"/>
<path d="M37.5661 32.2863H19.6932C18.9617 32.2863 18.3696 31.696 18.3696 30.9687C18.3696 30.2414 18.9617 29.6511 19.6932 29.6511H37.5652C38.2967 29.6511 38.8887 30.2414 38.8887 30.9687C38.8887 31.696 38.2967 32.2863 37.5661 32.2863Z" fill="#E5622A"/>
<path d="M37.5661 46.914H19.6932C18.9617 46.914 18.3696 46.3237 18.3696 45.5964C18.3696 44.8691 18.9617 44.2788 19.6932 44.2788H37.5652C38.2967 44.2788 38.8887 44.8691 38.8887 45.5964C38.8887 46.3237 38.2967 46.914 37.5661 46.914Z" fill="#E5622A"/>
<path d="M37.5661 114.917H19.6932C18.9617 114.917 18.3696 114.326 18.3696 113.599C18.3696 112.872 18.9617 112.281 19.6932 112.281H37.5652C38.2967 112.281 38.8887 112.872 38.8887 113.599C38.8887 114.326 38.2967 114.917 37.5661 114.917Z" fill="#E5622A"/>
<path d="M81.5593 129.702H51.3132C48.4993 129.702 46.2087 127.422 46.2087 124.62V17.2826C46.2096 14.4814 48.4993 12.202 51.3132 12.202H81.5584C84.3723 12.202 86.6629 14.4814 86.6629 17.2826V124.619C86.6629 127.422 84.3732 129.702 81.5593 129.702ZM51.3132 14.8372C49.9579 14.8372 48.8558 15.9343 48.8558 17.2826V124.619C48.8558 125.969 49.9579 127.066 51.3132 127.066H81.5584C82.9137 127.066 84.0158 125.969 84.0158 124.619V17.2826C84.0158 15.9343 82.9137 14.8372 81.5593 14.8372H51.3132Z" fill="#E5622A"/>
<path d="M75.3723 32.2863H57.5003C56.7688 32.2863 56.1768 31.696 56.1768 30.9687C56.1768 30.2414 56.7688 29.6511 57.5003 29.6511H75.3723C76.1038 29.6511 76.6959 30.2414 76.6959 30.9687C76.6959 31.696 76.1038 32.2863 75.3723 32.2863Z" fill="#E5622A"/>
<path d="M75.3723 46.914H57.5003C56.7688 46.914 56.1768 46.3237 56.1768 45.5964C56.1768 44.8691 56.7688 44.2788 57.5003 44.2788H75.3723C76.1038 44.2788 76.6959 44.8691 76.6959 45.5964C76.6959 46.3237 76.1038 46.914 75.3723 46.914Z" fill="#E5622A"/>
<path d="M75.3723 114.917H57.5003C56.7688 114.917 56.1768 114.326 56.1768 113.599C56.1768 112.872 56.7688 112.281 57.5003 112.281H75.3723C76.1038 112.281 76.6959 112.872 76.6959 113.599C76.6959 114.326 76.1038 114.917 75.3723 114.917Z" fill="#E5622A"/>
<path d="M112.51 129.701H90.3239C86.8474 129.701 84.0186 126.886 84.0186 123.424V58.6809C84.0186 55.22 86.8474 52.4039 90.3239 52.4039H118.165C121.641 52.4039 124.47 55.22 124.47 58.6809V108.374C124.47 109.101 123.878 109.691 123.146 109.691C122.415 109.691 121.823 109.101 121.823 108.374V58.6809C121.823 56.6729 120.182 55.0391 118.165 55.0391H90.3239C88.3068 55.0391 86.6656 56.6729 86.6656 58.6809V123.424C86.6656 125.432 88.3068 127.066 90.3239 127.066H112.51C113.241 127.066 113.833 127.656 113.833 128.383C113.833 129.111 113.24 129.701 112.51 129.701Z" fill="#E5622A"/>
<path d="M113.179 69.239H95.3074C94.5759 69.239 93.9839 68.6488 93.9839 67.9215C93.9839 67.1942 94.5759 66.6039 95.3074 66.6039H113.179C113.911 66.6039 114.503 67.1942 114.503 67.9215C114.503 68.6488 113.91 69.239 113.179 69.239Z" fill="#E5622A"/>
<path d="M113.179 83.8659H95.3074C94.5759 83.8659 93.9839 83.2756 93.9839 82.5483C93.9839 81.821 94.5759 81.2307 95.3074 81.2307H113.179C113.911 81.2307 114.503 81.821 114.503 82.5483C114.503 83.2756 113.91 83.8659 113.179 83.8659Z" fill="#E5622A"/>
<path d="M110.59 114.918H95.3047C94.5733 114.918 93.9812 114.328 93.9812 113.601C93.9812 112.874 94.5733 112.283 95.3047 112.283H110.59C111.321 112.283 111.913 112.874 111.913 113.601C111.913 114.328 111.321 114.918 110.59 114.918Z" fill="#E5622A"/>
<path d="M130.623 144.202C130.185 144.202 129.757 143.986 129.505 143.591L123.292 133.841L114.499 139.394C114.117 139.635 113.637 139.666 113.229 139.475C112.819 139.283 112.536 138.897 112.478 138.45L107.407 99.3649C107.341 98.8572 107.576 98.3583 108.011 98.0833C108.446 97.8102 109 97.8102 109.432 98.086L142.791 119.306C143.172 119.548 143.403 119.967 143.402 120.419C143.401 120.869 143.169 121.288 142.788 121.529L133.995 127.081L140.208 136.831C140.599 137.445 140.416 138.26 139.799 138.649C139.181 139.04 138.364 138.857 137.973 138.242L131.051 127.381C130.66 126.766 130.843 125.952 131.46 125.563L139.615 120.413L110.396 101.826L114.837 136.062L122.992 130.912C123.288 130.726 123.648 130.663 123.99 130.739C124.332 130.815 124.631 131.024 124.818 131.319L131.74 142.18C132.131 142.795 131.948 143.609 131.331 143.998C131.111 144.136 130.866 144.202 130.623 144.202Z" fill="#0D2F6E"/>
</svg>
