<svg width="150" height="150" viewBox="0 0 150 150" fill="none" xmlns="http://www.w3.org/2000/svg">
<path d="M108.541 69.4487C108.297 69.4487 108.051 69.3709 107.842 69.21C103.729 66.0388 91.2119 56.3887 80.5707 51.6546C79.9903 51.3967 79.7284 50.7145 79.9849 50.1309C80.2407 49.5473 80.9191 49.2833 81.5002 49.542C92.3918 54.3878 105.073 64.164 109.24 67.3769C109.743 67.7649 109.838 68.4901 109.452 68.996C109.227 69.2932 108.886 69.4487 108.541 69.4487Z" fill="#0D2F6E"/>
<path d="M22.1011 101.428C20.8761 101.428 19.6931 101.03 18.6962 100.271L18.135 99.8446C14.2729 96.892 13.3174 91.5666 15.9092 87.456C16.3471 86.7624 16.8249 85.9955 17.3509 85.1509C19.5905 81.5562 22.6578 76.6327 27.2151 70.023C40.0714 51.3528 48.0275 47.6765 59.9918 46.855C60.6243 46.8057 61.1725 47.2923 61.2161 47.929C61.259 48.5657 60.7812 49.1162 60.148 49.1601C48.931 49.93 41.4243 53.4446 29.104 71.3388C24.5766 77.9046 21.5261 82.802 19.298 86.3774C18.769 87.2266 18.2889 87.9973 17.8486 88.6941C15.9015 91.7829 16.6205 95.7857 19.5224 98.0045L20.0828 98.4295C20.8255 98.9954 21.7405 99.2233 22.6593 99.0739C23.5827 98.923 24.3821 98.4134 24.9104 97.6373C25.2687 97.1114 25.9823 96.9767 26.5068 97.3378C27.0298 97.6981 27.163 98.4172 26.8047 98.9431C25.9172 100.245 24.575 101.101 23.0261 101.354C22.7167 101.404 22.4082 101.428 22.1011 101.428Z" fill="#0D2F6E"/>
<path d="M19.9245 124.867C19.6971 124.867 19.4704 124.799 19.2759 124.665C18.9276 124.425 18.7384 124.013 18.7821 123.592L20.8379 103.878C20.857 103.692 20.9214 103.514 21.024 103.358L21.1916 103.105C21.2138 103.071 21.2383 103.039 21.2636 103.008L74.1966 25.2059C74.9753 24.0595 76.1537 23.2858 77.5143 23.0294C78.8764 22.7738 80.2538 23.064 81.397 23.8501L90.2144 29.9193C91.3575 30.7054 92.1278 31.891 92.3835 33.2568C92.6393 34.6242 92.3499 36.01 91.5681 37.1595L56.097 89.293C55.7394 89.8188 55.025 89.9543 54.5005 89.594C53.9768 89.2337 53.8436 88.5154 54.2012 87.9887L89.6715 35.856C90.5689 34.5372 90.2297 32.7294 88.9166 31.8263L80.0999 25.7564C79.4644 25.3191 78.698 25.1582 77.9377 25.2998C77.1812 25.443 76.5258 25.8727 76.0924 26.5101L23.102 104.396C23.0989 104.401 23.0951 104.406 23.092 104.411L21.2881 121.707L36.6673 113.748L42.5974 105.039C42.9558 104.512 43.6702 104.379 44.1939 104.739C44.7168 105.099 44.8508 105.818 44.4925 106.344L38.4115 115.281C38.3028 115.445 38.155 115.578 37.9812 115.668L20.4497 124.739C20.2843 124.824 20.1036 124.867 19.9245 124.867Z" fill="#E5622A"/>
<path d="M86.0743 44.3412C85.8507 44.3412 85.6256 44.2757 85.4266 44.1395L69.9501 33.4917C69.4264 33.1313 69.2931 32.413 69.6507 31.8864C70.0083 31.3613 70.7227 31.2258 71.2471 31.5854L86.7236 42.2332C87.2473 42.5935 87.3805 43.3118 87.023 43.8384C86.8002 44.1649 86.4403 44.3412 86.0743 44.3412Z" fill="#E5622A"/>
<path d="M37.6251 115.544C37.4015 115.544 37.1764 115.479 36.9773 115.343L21.5009 104.695C20.9772 104.335 20.8439 103.616 21.2015 103.09C21.5591 102.564 22.2734 102.428 22.7979 102.789L38.2744 113.436C38.7981 113.797 38.9313 114.515 38.5738 115.042C38.351 115.368 37.9911 115.544 37.6251 115.544Z" fill="#E5622A"/>
<path d="M93.1797 114.764C92.5105 114.764 92.0848 114.752 91.9975 114.75H91.9952C88.4433 114.75 86.9456 113.497 85.6241 112.392C84.3278 111.308 83.115 110.286 79.3908 110.339C78.8357 110.348 77.7844 110.426 76.4537 110.526C68.2863 111.14 49.1614 112.577 42.105 105.992C40.2697 104.279 39.3386 102.144 39.3386 99.6475C39.3386 96.2083 40.4312 93.4451 42.5866 91.4341C47.8 86.5683 58.0853 87.3413 64.2305 87.8017C65.6593 87.9095 66.8943 88.0019 67.7557 88.0019C79.3755 88.0019 87.4732 81.8257 87.4732 76.2816C87.4732 75.6433 87.9869 75.1267 88.6217 75.1267C89.2564 75.1267 89.7702 75.6433 89.7702 76.2816C89.7702 83.0568 80.9244 90.3116 67.7557 90.3116C66.8085 90.3116 65.5345 90.2161 64.059 90.1052C58.2874 89.6726 48.6277 88.9473 44.1486 93.1271C42.458 94.7054 41.6356 96.8381 41.6356 99.6475C41.6356 101.502 42.3002 103.024 43.6677 104.299C49.9898 110.2 69.0918 108.764 76.2829 108.223C77.7055 108.116 78.7338 108.039 79.3571 108.03C83.9113 107.96 85.6065 109.372 87.0934 110.617C88.3123 111.636 89.2748 112.442 92.0312 112.442C95.3282 112.54 104.532 112.25 107.861 109.803C108.372 109.427 109.092 109.538 109.466 110.054C109.841 110.569 109.729 111.291 109.217 111.667C105.366 114.496 96.42 114.764 93.1797 114.764Z" fill="#0D2F6E"/>
<path d="M126.856 121.783H117.99C112.145 121.783 107.391 117.002 107.391 111.125V68.2938C107.391 67.6555 107.904 67.1389 108.539 67.1389H126.856C129.483 67.1389 131.621 69.2885 131.621 71.93V116.993C131.62 119.634 129.483 121.783 126.856 121.783ZM109.688 69.4486V111.125C109.688 115.729 113.412 119.473 117.99 119.473H126.856C128.217 119.473 129.324 118.36 129.324 116.992V71.9293C129.324 70.5612 128.217 69.4479 126.856 69.4479L109.688 69.4486Z" fill="#0D2F6E"/>
<path d="M53.6689 123.251C49.509 123.251 46.1248 119.848 46.1248 115.665V107.71C46.1248 107.072 46.6385 106.555 47.2733 106.555C47.908 106.555 48.4218 107.072 48.4218 107.71V115.665C48.4218 118.574 50.7754 120.942 53.6689 120.942C56.5654 120.942 58.9214 118.575 58.9214 115.665V109.843C58.9214 109.205 59.4351 108.688 60.0699 108.688C60.7046 108.688 61.2184 109.205 61.2184 109.843V115.665C61.2184 119.848 57.8318 123.251 53.6689 123.251Z" fill="#0D2F6E"/>
<path d="M68.65 126.114C63.2857 126.114 58.9214 121.725 58.9214 116.331V109.843C58.9214 109.205 59.4352 108.689 60.0699 108.689C60.7046 108.689 61.2184 109.205 61.2184 109.843V116.331C61.2184 120.452 64.5521 123.804 68.65 123.804C72.7478 123.804 76.0816 120.452 76.0816 116.331V109.295C76.0816 108.657 76.5953 108.14 77.2301 108.14C77.8648 108.14 78.3786 108.657 78.3786 109.295V116.331C78.3786 121.726 74.015 126.114 68.65 126.114Z" fill="#0D2F6E"/>
</svg>
