<svg width="150" height="150" viewBox="0 0 150 150" fill="none" xmlns="http://www.w3.org/2000/svg">
<path d="M95.7543 134.769H9.15845V32.1412C9.15845 27.0377 11.1858 22.1432 14.7945 18.5345C18.4032 14.9258 23.2977 12.8984 28.4012 12.8984H76.5116C81.6151 12.8984 86.5095 14.9258 90.1183 18.5345C93.727 22.1432 95.7543 27.0377 95.7543 32.1412V74.9744" stroke="#0D2F6E" stroke-width="3.5" stroke-linecap="round" stroke-linejoin="round"/>
<path d="M33.2146 38.5626H71.7001M33.2146 64.2196H71.7001M95.7484 54.5948H108.577C111.105 54.593 113.609 55.0893 115.945 56.0556C118.281 57.0218 120.404 58.4389 122.193 60.226C123.981 62.013 125.399 64.1349 126.367 66.4705C127.335 68.806 127.833 71.3094 127.833 73.8375M46.1055 89.8766H58.934C61.4856 89.8785 63.9323 90.8919 65.7378 92.6948C67.5433 94.4978 68.5603 96.943 68.5658 99.4946V134.776H36.4876V99.4946C36.4876 96.9437 37.5009 94.4974 39.3046 92.6937C41.1083 90.8899 43.5547 89.8766 46.1055 89.8766Z" stroke="#0D2F6E" stroke-width="3.5" stroke-linecap="round" stroke-linejoin="round"/>
<path d="M115.026 73.7723C115.494 73.7724 115.912 74.0662 116.068 74.5077H116.067L118.802 82.1962L122.816 83.8602L130.188 80.3563L130.188 80.3553C130.61 80.1565 131.113 80.2414 131.444 80.5731L136.226 85.3544L136.338 85.4862C136.574 85.8098 136.619 86.2415 136.442 86.6112L132.938 93.9813L134.6 97.995L142.291 100.731C142.731 100.888 143.026 101.304 143.026 101.772V108.535C143.026 109.003 142.732 109.419 142.291 109.576L134.6 112.311L132.938 116.325L136.442 123.697L136.504 123.858C136.617 124.242 136.515 124.664 136.226 124.953L131.444 129.734V129.735C131.113 130.067 130.609 130.151 130.188 129.952L130.188 129.951L122.814 126.447L118.803 128.109L116.067 135.799C115.911 136.24 115.494 136.535 115.026 136.535H108.264C107.796 136.535 107.378 136.241 107.222 135.8V135.799L104.486 128.109L100.474 126.447L93.1025 129.951C92.6803 130.152 92.1769 130.066 91.8457 129.734L87.0635 124.953V124.952C86.733 124.621 86.6465 124.118 86.8477 123.696L90.3506 116.324L88.6885 112.311L80.999 109.576C80.5583 109.419 80.2637 109.003 80.2637 108.535V101.772C80.2637 101.304 80.5583 100.888 80.999 100.731L88.6885 97.996L90.3516 93.9813L86.8477 86.6112L86.7861 86.4491C86.6725 86.0652 86.7748 85.6436 87.0645 85.3544L91.8457 80.5731C92.1765 80.2416 92.6797 80.1556 93.1025 80.3563L100.473 83.8602L104.486 82.1971L107.223 74.5077C107.379 74.0659 107.797 73.7724 108.264 73.7723H115.026ZM106.406 83.4012C106.302 83.6949 106.077 83.9309 105.787 84.0507L105.788 84.0516L100.865 86.0897L100.866 86.0907C100.576 86.2115 100.25 86.2013 99.9688 86.0682H99.9678L92.8574 82.6884L89.1787 86.3661L92.5586 93.4755L92.6035 93.5839C92.694 93.8401 92.6869 94.122 92.582 94.3749L90.543 99.2968C90.4233 99.5845 90.188 99.8099 89.8926 99.9149L82.4746 102.553V107.754L89.8916 110.392H89.8926C90.1873 110.497 90.4234 110.723 90.543 111.012L92.582 115.932L92.6211 116.043C92.6981 116.303 92.6759 116.584 92.5586 116.831L89.1787 123.94L92.8574 127.619L99.9668 124.24C100.25 124.105 100.577 124.097 100.866 124.218H100.865L105.788 126.256H105.787C106.077 126.376 106.302 126.613 106.406 126.907L109.044 134.324H114.246L116.885 126.906L116.929 126.799C117.046 126.555 117.249 126.36 117.503 126.255L122.425 124.217L122.535 124.178C122.758 124.112 122.996 124.119 123.214 124.195L123.321 124.239L123.322 124.24L130.433 127.619L134.11 123.94L130.731 116.831C130.596 116.548 130.589 116.221 130.709 115.932L132.747 111.011C132.867 110.722 133.104 110.497 133.398 110.392L140.815 107.754V102.553L133.397 99.9149C133.103 99.8102 132.866 99.5858 132.746 99.2968V99.2958L130.708 94.3749C130.588 94.0851 130.598 93.7594 130.731 93.4774L134.11 86.3661L130.432 82.6874L123.322 86.0682H123.321C123.039 86.202 122.713 86.2101 122.425 86.0907L117.502 84.0516V84.0507C117.213 83.931 116.988 83.6956 116.884 83.4012L114.246 75.9833H109.044L106.406 83.4012Z" fill="#E5622A" stroke="#E5622A"/>
<path d="M111.645 91.0254C119.436 91.0254 125.773 97.3628 125.773 105.153C125.773 112.944 119.436 119.281 111.645 119.281C103.855 119.281 97.5171 112.944 97.5171 105.153C97.5172 97.3629 103.855 91.0255 111.645 91.0254ZM111.645 93.2363C105.075 93.2365 99.7281 98.5829 99.728 105.153C99.728 111.724 105.074 117.07 111.645 117.07C118.216 117.07 123.562 111.724 123.562 105.153C123.562 98.5828 118.216 93.2363 111.645 93.2363Z" fill="#E5622A" stroke="#E5622A"/>
</svg>
