<svg width="150" height="150" viewBox="0 0 150 150" fill="none" xmlns="http://www.w3.org/2000/svg">
<g clip-path="url(#clip0_980_36505)">
<path d="M132.844 106.422H18.1563C17.518 106.422 17 105.908 17 105.275V74.0343C17 42.0336 43.2429 16 75.5 16C107.758 16 134.001 42.0336 134.001 74.0343V105.276C134 105.908 133.482 106.422 132.844 106.422ZM19.3126 104.128H131.687V74.0343C131.687 43.2985 106.482 18.2941 75.5 18.2941C44.5179 18.2941 19.3126 43.2985 19.3126 74.0343V104.128Z" fill="#E5622A"/>
<path d="M114.434 88.1591H36.5664C35.9282 88.1591 35.4102 87.6453 35.4102 87.0121V74.0343C35.4102 52.1048 53.3949 34.2634 75.5007 34.2634C97.6064 34.2634 115.591 52.1048 115.591 74.0343V87.0128C115.59 87.6452 115.073 88.1591 114.434 88.1591ZM37.7227 85.865H113.279V74.0343C113.279 53.3696 96.3322 36.5575 75.5007 36.5575C54.6691 36.5575 37.7227 53.3688 37.7227 74.0343V85.865Z" fill="#E5622A"/>
<path d="M37.271 106.422C36.6328 106.422 36.1147 105.908 36.1147 105.275V96.3568C36.1147 95.7236 36.6328 95.2097 37.271 95.2097C37.9093 95.2097 38.4273 95.7236 38.4273 96.3568V105.275C38.4273 105.908 37.9093 106.422 37.271 106.422Z" fill="#E5622A"/>
<path d="M56.386 106.422C55.7477 106.422 55.2297 105.908 55.2297 105.275V96.3568C55.2297 95.7236 55.7477 95.2097 56.386 95.2097C57.0243 95.2097 57.5423 95.7236 57.5423 96.3568V105.275C57.5423 105.908 57.0243 106.422 56.386 106.422Z" fill="#E5622A"/>
<path d="M75.5 106.422C74.8618 106.422 74.3438 105.908 74.3438 105.275V96.3568C74.3438 95.7236 74.8618 95.2097 75.5 95.2097C76.1383 95.2097 76.6563 95.7236 76.6563 96.3568V105.275C76.6563 105.908 76.1383 106.422 75.5 106.422Z" fill="#E5622A"/>
<path d="M94.6148 106.422C93.9765 106.422 93.4585 105.908 93.4585 105.275V96.3568C93.4585 95.7236 93.9765 95.2097 94.6148 95.2097C95.253 95.2097 95.7711 95.7236 95.7711 96.3568V105.275C95.7711 105.908 95.253 106.422 94.6148 106.422Z" fill="#E5622A"/>
<path d="M113.729 106.422C113.091 106.422 112.573 105.908 112.573 105.275V96.3568C112.573 95.7236 113.091 95.2097 113.729 95.2097C114.367 95.2097 114.885 95.7236 114.885 96.3568V105.275C114.885 105.908 114.368 106.422 113.729 106.422Z" fill="#E5622A"/>
<path d="M128.996 133H35.1652C34.9678 133 34.7736 132.95 34.6017 132.855L18.033 123.675C17.6668 123.473 17.4402 123.089 17.4402 122.673C17.4402 122.257 17.6668 121.874 18.033 121.672L34.6017 112.491C34.7743 112.396 34.9686 112.346 35.1652 112.346H128.996C131.512 112.346 133.56 114.377 133.56 116.874V128.472C133.56 130.969 131.512 133 128.996 133ZM35.4666 130.706H128.996C130.237 130.706 131.247 129.703 131.247 128.472V116.874C131.247 115.643 130.237 114.64 128.996 114.64H35.4666L20.9676 122.673L35.4666 130.706Z" fill="#0D2F6E"/>
<path d="M35.1651 133C34.5268 133 34.0088 132.486 34.0088 131.853V113.493C34.0088 112.86 34.5268 112.346 35.1651 112.346C35.8033 112.346 36.3213 112.86 36.3213 113.493V131.853C36.3213 132.486 35.8041 133 35.1651 133Z" fill="#0D2F6E"/>
<path d="M119.418 126.18C118.78 126.18 118.262 125.666 118.262 125.033V113.493C118.262 112.86 118.78 112.346 119.418 112.346C120.057 112.346 120.575 112.86 120.575 113.493V125.033C120.575 125.666 120.057 126.18 119.418 126.18Z" fill="#0D2F6E"/>
</g>
<defs>
<clipPath id="clip0_980_36505">
<rect width="117" height="117" fill="white" transform="translate(17 16)"/>
</clipPath>
</defs>
</svg>
