<svg width="150" height="150" viewBox="0 0 150 150" fill="none" xmlns="http://www.w3.org/2000/svg">
<path d="M73.0403 108.644C65.7282 108.644 59.7786 102.716 59.7786 95.431C59.7786 88.1459 65.7282 82.2184 73.0403 82.2184C80.3525 82.2184 86.3021 88.1459 86.3021 95.431C86.3021 102.716 80.3525 108.644 73.0403 108.644ZM73.0403 84.8458C67.1822 84.8458 62.4158 89.5945 62.4158 95.431C62.4158 101.267 67.1822 106.016 73.0403 106.016C78.8985 106.016 83.6649 101.267 83.6649 95.431C83.6649 89.5945 78.8985 84.8458 73.0403 84.8458Z" fill="#E5622A"/>
<path d="M96.3219 141.168H49.7581C49.0302 141.168 48.4395 140.58 48.4395 139.854V130.214C48.4395 120.852 56.0839 113.236 65.4813 113.236H80.5988C89.9952 113.236 97.6406 120.852 97.6406 130.214V139.854C97.6406 140.58 97.0498 141.168 96.3219 141.168ZM51.0767 138.54H95.0033V130.214C95.0033 122.301 88.5412 115.864 80.5988 115.864H65.4813C57.5388 115.864 51.0767 122.302 51.0767 130.214V138.54Z" fill="#E5622A"/>
<path d="M35.8318 113.264C29.4549 113.264 24.2666 108.095 24.2666 101.742C24.2666 95.3889 29.4549 90.2198 35.8318 90.2198C42.2086 90.2198 47.3969 95.3889 47.3969 101.742C47.3969 108.095 42.2086 113.264 35.8318 113.264ZM35.8318 92.8464C30.908 92.8464 26.9038 96.8366 26.9038 101.741C26.9038 106.646 30.9089 110.636 35.8318 110.636C40.7546 110.636 44.7597 106.646 44.7597 101.741C44.7597 96.8366 40.7546 92.8464 35.8318 92.8464Z" fill="#E5622A"/>
<path d="M55.8026 141.171H15.8582C15.1303 141.171 14.5396 140.584 14.5396 139.858V131.587C14.5396 123.453 21.1819 116.835 29.3467 116.835H42.3149C46.3525 116.835 50.1158 118.423 52.9139 121.306C53.4203 121.827 53.4071 122.659 52.8832 123.164C52.3584 123.666 51.5241 123.654 51.0187 123.132C48.7225 120.766 45.6308 119.463 42.3158 119.463H29.3467C22.6359 119.463 17.1768 124.901 17.1768 131.587V138.544H55.8026C56.5305 138.544 57.1212 139.132 57.1212 139.858C57.1212 140.584 56.5313 141.171 55.8026 141.171Z" fill="#E5622A"/>
<path d="M110.25 113.264C103.873 113.264 98.6851 108.095 98.6851 101.742C98.6851 95.3889 103.873 90.2198 110.25 90.2198C116.627 90.2198 121.814 95.3889 121.814 101.742C121.814 108.095 116.627 113.264 110.25 113.264ZM110.25 92.8464C105.326 92.8464 101.322 96.8366 101.322 101.741C101.322 106.646 105.327 110.636 110.25 110.636C115.173 110.636 119.177 106.646 119.177 101.741C119.177 96.8366 115.173 92.8464 110.25 92.8464Z" fill="#E5622A"/>
<path d="M130.221 141.171H90.2766C89.5487 141.171 88.958 140.584 88.958 139.858C88.958 139.132 89.5487 138.544 90.2766 138.544H128.902V131.587C128.902 124.902 123.442 119.463 116.732 119.463H103.764C100.46 119.463 97.3725 120.762 95.0702 123.123C94.5613 123.644 93.7279 123.654 93.2057 123.149C92.6827 122.644 92.6712 121.811 93.1785 121.291C95.9818 118.418 99.7417 116.835 103.764 116.835H116.732C124.896 116.835 131.539 123.453 131.539 131.587V139.858C131.54 140.584 130.949 141.171 130.221 141.171Z" fill="#E5622A"/>
<path d="M124.084 73.4597C123.741 73.4597 123.405 73.3266 123.152 73.0752L108.158 58.1382H67.3319C63.7242 58.1382 60.7881 55.2138 60.7881 51.6186V14.7204C60.7881 11.1252 63.7242 8.19995 67.3319 8.19995H128.175C131.782 8.19995 134.719 11.1252 134.719 14.7204V51.6177C134.719 55.2129 131.782 58.1373 128.175 58.1373H125.403V72.146C125.403 72.6776 125.082 73.1567 124.589 73.3599C124.425 73.4273 124.254 73.4597 124.084 73.4597ZM67.3319 10.8274C65.1782 10.8274 63.4253 12.5738 63.4253 14.7204V51.6177C63.4253 53.7643 65.1782 55.5098 67.3319 55.5098H108.704C109.053 55.5098 109.389 55.6482 109.637 55.8943L122.766 68.9738V56.8244C122.766 56.0984 123.356 55.5107 124.084 55.5107H128.175C130.328 55.5107 132.081 53.7643 132.081 51.6186V14.7204C132.081 12.5738 130.328 10.8274 128.175 10.8274H67.3319Z" fill="#0D2F6E"/>
<path d="M29.7038 83.3249C29.5341 83.3249 29.3618 83.2925 29.1992 83.225C28.706 83.0218 28.3852 82.5428 28.3852 82.0111V68.8791H25.8429C22.3942 68.8791 19.5891 66.0844 19.5891 62.6486V27.8436C19.5891 24.4078 22.3942 21.613 25.8429 21.613H62.1031C62.831 21.613 63.4217 22.2007 63.4217 22.9268C63.4217 23.6528 62.831 24.2405 62.1031 24.2405H25.8429C23.8482 24.2405 22.2263 25.8572 22.2263 27.8436V62.6477C22.2263 64.6349 23.8491 66.2508 25.8429 66.2508H29.7047C30.4325 66.2508 31.0233 66.8385 31.0233 67.5645V78.8407L43.2829 66.6353C43.5299 66.3892 43.8657 66.2508 44.2156 66.2508H83.2431C85.2316 66.2508 86.8491 64.634 86.8491 62.6477V56.8191C86.8491 56.0931 87.4399 55.5054 88.1677 55.5054C88.8956 55.5054 89.4864 56.0931 89.4864 56.8191V62.6477C89.4864 66.0835 86.6856 68.8783 83.2431 68.8783H44.7606L30.6365 82.9404C30.3842 83.1917 30.0466 83.3249 29.7038 83.3249Z" fill="#0D2F6E"/>
</svg>
